<svg width="336" height="276" viewBox="0 0 336 276" fill="none" xmlns="http://www.w3.org/2000/svg">
<path d="M128.6 181.336C128.408 181.24 128.264 181.192 128.168 181.192C124.904 179.848 120.872 179.176 116.072 179.176C111.368 179.176 107.624 179.656 104.84 180.616C100.424 182.152 98.216 184.168 98.216 186.664C98.216 187.912 99.416 188.536 101.816 188.536C102.2 188.536 103.064 188.44 104.408 188.248H104.552C104.936 188.248 105.128 189.256 105.128 191.272L104.984 194.584C104.504 201.208 104.264 206.008 104.264 208.984C104.264 211.864 104.696 214.744 105.56 217.624L106.856 221.944C106.856 222.232 106.712 222.472 106.424 222.664C105.656 222.952 104.072 223.864 101.672 225.4C95.816 229.144 91.592 231.016 89 231.016C86.504 231.016 84.152 230.68 81.944 230.008C79.832 229.432 78.152 228.808 76.904 228.136C75.656 227.464 75.032 226.984 75.032 226.696C75.032 226.216 75.512 224.632 76.472 221.944C77.528 219.16 78.056 216.616 78.056 214.312C78.056 213.832 77.576 213.304 76.616 212.728C75.656 212.056 75.176 211.288 75.176 210.424C75.176 209.56 75.464 208.36 76.04 206.824C76.712 205.288 77.048 204.472 77.048 204.376V203.8L76.904 196.6C76.904 195.352 77 192.808 77.192 188.968V188.392L77.336 185.8C77.336 183.784 77.144 181.768 76.76 179.752C76.472 177.736 76.328 176.68 76.328 176.584C76.328 176.488 77.096 175.768 78.632 174.424C80.168 173.08 80.936 172.024 80.936 171.256C80.936 170.488 80.792 169.912 80.504 169.528C80.216 169.048 79.832 168.712 79.352 168.52C78.968 168.232 78.584 167.992 78.2 167.8C77.144 167.32 76.616 167.032 76.616 166.936C77.096 162.136 77.336 158.824 77.336 157L76.904 141.16C78.056 139.624 78.632 138.664 78.632 138.28C78.632 137.896 78.2 137.272 77.336 136.408C76.472 135.928 75.656 134.008 74.888 130.648C74.216 127.288 73.88 124.792 73.88 123.16C73.88 122.488 76.808 121.816 82.664 121.144C88.52 120.376 91.448 119.704 91.448 119.128C91.928 118.84 92.552 118.696 93.32 118.696C94.088 118.696 96.248 118.888 99.8 119.272C103.352 119.656 105.32 120.04 105.704 120.424L106.28 121.864C106.664 122.728 107.336 123.16 108.296 123.16C109.256 123.16 111.896 122.584 116.216 121.432C120.536 120.28 124.376 119.704 127.736 119.704L133.352 118.552C138.248 119.512 140.84 120.088 141.128 120.28C141.32 120.664 141.416 121.624 141.416 123.16C141.416 124.6 141.224 126.376 140.84 128.488V128.776C138.632 137.608 137 142.552 135.944 143.608C134.888 144.664 132.776 145.192 129.608 145.192C126.536 145.096 125 144.52 125 143.464V143.032C125 140.632 124.28 138.76 122.84 137.416C121.4 135.976 119.432 135.256 116.936 135.256C114.536 135.256 111.608 136.024 108.152 137.56C104.696 139.096 102.968 140.296 102.968 141.16C102.968 141.352 103.448 141.88 104.408 142.744C105.464 143.512 105.992 144.232 105.992 144.904C105.992 145.576 105.8 146.152 105.416 146.632C104.84 147.496 104.552 149.848 104.552 153.688C104.552 157.528 104.792 159.688 105.272 160.168C105.752 160.648 107.48 160.888 110.456 160.888L131.768 160.312C133.592 160.312 134.6 160.456 134.792 160.744C135.08 160.936 135.224 162.328 135.224 164.92C135.224 167.512 134.408 170.92 132.776 175.144C131.144 179.272 129.8 181.336 128.744 181.336H128.6ZM170.171 198.616L170.603 191.416C170.603 190.744 170.507 190.408 170.315 190.408C169.067 190.408 166.907 191.176 163.835 192.712C160.859 194.248 159.371 195.592 159.371 196.744C160.139 197.992 160.523 199 160.523 199.768C160.523 200.44 160.379 200.92 160.091 201.208C158.939 201.688 158.363 202.456 158.363 203.512C158.363 204.472 158.987 205.624 160.235 206.968C161.579 208.216 162.683 208.84 163.547 208.84C164.411 208.84 165.899 208.024 168.011 206.392C170.123 204.664 171.179 203.416 171.179 202.648L171.035 202.36C170.459 201.784 170.171 200.536 170.171 198.616ZM193.787 192.424L194.507 203.368C194.507 204.232 194.411 204.664 194.219 204.664C191.051 206.584 189.467 208.84 189.467 211.432C189.467 212.2 190.187 212.872 191.627 213.448L193.787 214.312L194.939 221.944L197.531 226.696C197.531 226.888 197.099 227.272 196.235 227.848C193.739 229.672 191.819 230.584 190.475 230.584C188.267 230.584 185.771 231.4 182.987 233.032L181.691 233.752H181.403C179.867 233.752 176.795 232.888 172.187 231.16L169.883 230.296C169.691 230.104 169.595 229.672 169.595 229L170.027 222.232V221.656L168.155 221.08C167.867 221.08 167.339 221.608 166.571 222.664C165.323 224.296 162.299 226.696 157.499 229.864L155.051 231.448C152.267 231.448 149.483 230.584 146.699 228.856C144.011 227.128 141.947 225.496 140.507 223.96C139.067 222.328 138.347 221.416 138.347 221.224C138.347 221.032 138.539 220.792 138.923 220.504C139.883 219.64 140.363 218.728 140.363 217.768C140.363 216.04 138.635 214.744 135.179 213.88L133.595 213.448C133.595 209.128 133.979 204.952 134.747 200.92C135.611 196.888 136.427 193.96 137.195 192.136L138.491 189.256C139.643 187.72 143.291 185.32 149.435 182.056C155.579 178.792 160.571 177.16 164.411 177.16C164.699 177.16 165.179 177.496 165.851 178.168C166.619 178.744 167.243 179.032 167.723 179.032C168.299 179.032 168.971 178.792 169.739 178.312C171.371 177.448 172.187 176.728 172.187 176.152C172.187 174.712 171.515 172.84 170.171 170.536C169.115 169.48 165.707 168.664 159.947 168.088L157.067 167.8C155.147 167.8 152.459 168.52 149.003 169.96C145.547 171.304 143.723 171.976 143.531 171.976C143.339 171.976 142.859 171.4 142.091 170.248C141.323 169.096 140.939 168.28 140.939 167.8C140.939 167.224 141.803 165.256 143.531 161.896C145.355 158.44 146.603 156.472 147.275 155.992C148.427 155.32 151.979 154.168 157.931 152.536C163.883 150.904 168.155 150.088 170.747 150.088C174.971 152.872 178.667 154.648 181.835 155.416C185.099 156.088 188.219 157.528 191.195 159.736C194.171 161.848 195.659 163.96 195.659 166.072C195.659 166.264 195.179 167.272 194.219 169.096C193.355 170.92 192.923 172.408 192.923 173.56C192.923 174.712 193.163 175.72 193.643 176.584L194.507 177.88C194.507 182.68 194.363 185.416 194.075 186.088C193.019 188.2 192.491 189.352 192.491 189.544L193.787 191.56V192.424ZM299.354 180.04L299.498 184.072C299.498 184.648 298.874 185.512 297.626 186.664C296.474 187.816 295.898 188.584 295.898 188.968C295.898 190.312 295.994 191.128 296.186 191.416C296.474 191.608 296.858 191.8 297.338 191.992C298.49 192.472 299.066 192.76 299.066 192.856C299.066 196.408 298.874 201.112 298.49 206.968C298.202 212.728 298.058 216.04 298.058 216.904C298.058 217.672 298.778 219.64 300.218 222.808L302.234 227.56C302.234 227.848 301.658 228.28 300.506 228.856C299.45 229.432 298.49 230.152 297.626 231.016C296.762 231.88 295.226 232.648 293.018 233.32C290.906 233.992 289.082 234.376 287.546 234.472L285.098 234.76C283.37 234.76 280.682 233.752 277.034 231.736C273.482 229.816 271.706 228.568 271.706 227.992L273.002 218.056L275.018 216.904C276.362 216.136 277.034 215.464 277.034 214.888C277.034 214.216 276.794 213.688 276.314 213.304C275.93 212.92 275.498 212.584 275.018 212.296C273.77 211.528 273.146 211.048 273.146 210.856C273.722 206.824 274.01 202.552 274.01 198.04C274.01 193.528 273.914 191.176 273.722 190.984C273.146 190.408 272.858 189.736 272.858 188.968C272.858 187.432 273.818 185.416 275.738 182.92L276.602 181.768C276.602 180.616 275.498 179.656 273.29 178.888C271.178 178.888 269.066 180.712 266.954 184.36C264.842 187.912 263.786 190.264 263.786 191.416L264.65 193.72C264.65 195.544 263.93 197.512 262.49 199.624C262.394 199.816 262.346 200.296 262.346 201.064C262.346 201.832 262.826 202.792 263.786 203.944C263.402 206.248 263.21 208.888 263.21 211.864C263.21 214.84 263.546 219.352 264.218 225.4V225.544C264.218 225.832 263.738 226.12 262.778 226.408C259.514 227.464 257.594 228.28 257.018 228.856C255.866 230.008 253.85 230.824 250.97 231.304L249.53 231.448C247.13 231.448 244.634 230.968 242.042 230.008C239.546 229.144 238.298 228.376 238.298 227.704V227.56C238.97 224.68 239.306 218.68 239.306 209.56V207.976C239.306 206.632 238.874 205.528 238.01 204.664C238.01 203.704 238.634 202.744 239.882 201.784C241.226 200.824 241.898 200.008 241.898 199.336C241.898 198.568 241.274 197.608 240.026 196.456C238.778 195.304 238.154 194.632 238.154 194.44C238.154 192.136 238.778 189.4 240.026 186.232C241.37 183.064 242.042 181.336 242.042 181.048C242.042 180.664 241.802 180.28 241.322 179.896C240.938 179.416 240.314 179.176 239.45 179.176C237.914 179.176 236.09 179.848 233.978 181.192C233.21 182.056 231.866 184.648 229.946 188.968C228.026 193.288 227.066 196.168 227.066 197.608C227.066 199.816 227.69 201.64 228.938 203.08C229.034 203.176 229.082 203.368 229.082 203.656L227.93 206.68C227.642 206.968 227.498 208.216 227.498 210.424L228.65 228.136C228.65 228.712 226.538 230.104 222.314 232.312C218.09 234.616 215.546 235.768 214.682 235.768C211.418 235.576 207.674 234.712 203.45 233.176L201.578 232.456L202.874 223.24L204.602 222.664C205.658 222.376 206.186 221.752 206.186 220.792C206.186 219.832 205.514 218.776 204.17 217.624C202.922 216.472 202.298 215.8 202.298 215.608L202.73 213.88C203.594 210.424 204.026 206.68 204.026 202.648L203.162 176.152C203.162 175 203.21 174.376 203.306 174.28C203.882 173.896 204.266 173.608 204.458 173.416C204.938 173.128 205.178 172.216 205.178 170.68C205.178 169.048 204.842 167.224 204.17 165.208C203.498 163.096 202.682 161.608 201.722 160.744C200.858 159.784 200.426 157.816 200.426 154.84C200.426 154.264 201.914 153.256 204.89 151.816C207.962 150.28 209.978 149.512 210.938 149.512C218.522 150.568 223.226 152.008 225.05 153.832C226.106 157.384 226.634 159.496 226.634 160.168C226.634 160.744 226.25 162.088 225.482 164.2C224.714 166.216 224.33 167.512 224.33 168.088C224.33 168.664 224.714 169.384 225.482 170.248C226.25 171.016 227.066 171.4 227.93 171.4C229.946 166.696 231.29 164.008 231.962 163.336C232.634 162.664 235.274 161.176 239.882 158.872C244.49 156.472 247.37 155.272 248.522 155.272C249.674 155.272 251.498 155.992 253.994 157.432C256.49 158.872 258.266 160.12 259.322 161.176C261.242 164.248 262.202 166.216 262.202 167.08C262.682 167.368 263.066 167.512 263.354 167.512C263.738 167.512 264.026 167.416 264.218 167.224C264.506 166.936 265.274 165.4 266.522 162.616C267.77 159.832 268.442 158.392 268.538 158.296C269.594 157.24 272.282 155.8 276.602 153.976C280.922 152.152 283.946 151.24 285.674 151.24C289.994 152.68 292.49 153.736 293.162 154.408C298.154 161.8 300.65 166.024 300.65 167.08V167.224C299.786 167.992 299.354 171.208 299.354 176.872V180.04Z" fill="white"/>
<path d="M33.904 43.952L35.056 36.032C35.056 35.552 34.96 34.736 34.768 33.584V33.44C34.768 32.864 35.344 32.048 36.496 30.992C37.648 29.84 39.568 28.736 42.256 27.68C45.04 26.528 48.112 25.952 51.472 25.952C54.448 26.528 55.936 27.152 55.936 27.824V27.968C55.456 29.888 55.216 31.616 55.216 33.152C55.216 34.688 55.36 35.6 55.648 35.888C55.936 36.176 56.512 36.464 57.376 36.752C58.24 37.04 58.768 37.28 58.96 37.472C59.248 38.72 59.392 40.016 59.392 41.36C59.392 42.608 59.248 43.664 58.96 44.528C58.672 45.392 57.328 46.976 54.928 49.28C52.624 51.584 51.088 52.736 50.32 52.736C47.248 52.736 44.368 52.112 41.68 50.864C38.992 49.616 37.024 48.368 35.776 47.12C34.528 45.776 33.904 44.72 33.904 43.952ZM57.808 98.96L57.088 122.288C57.088 126.8 57.328 129.584 57.808 130.64C59.728 134.864 60.688 137.408 60.688 138.272C60.688 139.136 60.64 139.616 60.544 139.712C60.448 139.808 59.344 140.192 57.232 140.864C50.416 143.264 46.624 144.608 45.856 144.896C45.088 145.28 44.032 145.472 42.688 145.472C41.44 145.472 39.184 144.8 35.92 143.456C32.656 142.112 31.024 141.056 31.024 140.288L33.04 122.864C33.04 122.576 33.664 122.096 34.912 121.424C36.16 120.752 36.784 120.08 36.784 119.408C36.784 118.736 36.112 117.92 34.768 116.96C33.52 116 32.896 115.424 32.896 115.232V115.088C33.472 112.88 33.76 109.808 33.76 105.872L32.752 88.736C32.752 88.544 33.088 88.064 33.76 87.296C34.432 86.528 34.768 85.424 34.768 83.984C34.768 82.544 34.192 80.384 33.04 77.504C31.984 74.528 31.456 72.656 31.456 71.888C31.456 71.312 33.616 69.68 37.936 66.992C42.256 64.304 45.28 62.96 47.008 62.96C55.936 63.344 60.4 64.016 60.4 64.976C60.4 66.8 59.824 70.112 58.672 74.912C57.616 79.616 57.088 82.832 57.088 84.56C57.088 86.192 57.184 87.776 57.376 89.312C54.784 90.944 53.488 92.816 53.488 94.928C54.64 95.984 55.984 96.512 57.52 96.512C57.712 96.512 57.808 97.328 57.808 98.96Z" fill="white"/>
<path d="M47.5046 160.347C46.026 161.432 43.6176 163.492 40.2795 166.528C36.9414 169.564 34.2266 173.784 32.1352 179.19C31.7801 179.512 30.9309 179.506 29.5877 179.171C28.309 178.906 27.3662 178.725 26.7592 178.629C26.2231 178.467 25.4159 178.293 24.3374 178.106C23.3236 177.99 22.5131 177.883 21.9061 177.787C20.2206 177.503 19.1841 177.148 18.7966 176.722C16.9235 174.662 14.2139 170.898 10.6677 165.429C7.18618 160.031 5.83602 156.976 6.61728 156.266C7.04343 155.878 8.98049 154.441 12.4285 151.954C15.8765 149.468 17.8103 148.098 18.23 147.846L20.3997 147.236C28.0123 141.481 32.9195 137.602 35.1212 135.6C37.323 133.598 39.9605 131.004 43.0338 127.82C46.1717 124.707 48.5671 122.204 50.22 120.312C52.0084 118.426 52.9382 117.451 53.0092 117.386C53.1512 117.257 53.6582 117.315 54.53 117.56C57.0163 118.154 58.8632 117.902 60.0706 116.804C61.278 115.706 61.6168 114.295 61.0869 112.571C60.6927 110.853 60.6022 109.897 60.8153 109.704C61.5255 109.058 63.3205 107.75 66.2003 105.78C69.1511 103.745 71.3368 102.082 72.7572 100.79C74.1777 99.4984 75.7466 97.2283 77.4638 93.9798C79.2455 90.8023 80.314 89.0521 80.6691 88.7292C81.2373 88.2125 84.0013 88.6834 88.961 90.142C94.0563 91.6071 97.2176 93.0143 98.4448 94.3638C99.7365 95.7843 101.374 98.5124 103.357 102.548C105.411 106.519 105.906 108.989 104.84 109.958C104.059 110.668 101.751 112.054 97.9152 114.115C94.0797 116.175 91.9489 117.399 91.5227 117.787C91.0966 118.174 90.8997 118.743 90.9322 119.492C91.1002 120.247 90.9711 120.819 90.545 121.206C81.7378 127.788 75.9137 132.371 73.0728 134.954C70.3029 137.473 68.7016 138.994 68.269 139.517C67.9075 139.976 67.6041 140.641 67.3588 141.513C67.1136 142.385 66.7069 143.079 66.1387 143.596C66.0677 143.66 65.0538 143.544 63.0971 143.248C61.2049 143.022 59.9038 143.232 59.1935 143.878C58.4833 144.524 58.18 145.903 58.2837 148.014C58.3873 150.126 57.9065 151.666 56.8411 152.635C55.2269 153.714 54.3165 154.282 54.1098 154.34C54.0388 154.405 53.1282 154.26 51.3782 153.905C49.6991 153.485 48.7175 153.405 48.4334 153.663L47.6877 154.341C46.7644 155.181 46.7 156.537 47.4946 158.41C47.8564 159.378 47.8597 160.024 47.5046 160.347Z" fill="white"/>
<path d="M92.5046 125.347C91.026 126.432 88.6176 128.492 85.2795 131.528C81.9414 134.564 79.2266 138.784 77.1352 144.19C76.7801 144.512 75.9309 144.506 74.5877 144.171C73.309 143.906 72.3662 143.725 71.7591 143.629C71.2231 143.467 70.4159 143.293 69.3374 143.106C68.3236 142.99 67.5131 142.883 66.9061 142.787C65.2206 142.503 64.1841 142.148 63.7965 141.722C61.9235 139.662 59.2139 135.898 55.6677 130.429C52.1862 125.031 50.836 121.976 51.6173 121.266C52.0434 120.878 53.9805 119.441 57.4285 116.954C60.8764 114.468 62.8103 113.098 63.23 112.846L65.3997 112.236C73.0123 106.481 77.9195 102.602 80.1212 100.6C82.323 98.5976 84.9605 96.0044 88.0338 92.8203C91.1717 89.7072 93.5671 87.2045 95.22 85.3121C97.0084 83.4262 97.9382 82.4509 98.0092 82.3863C98.1512 82.2572 98.6582 82.3152 99.53 82.5604C102.016 83.1541 103.863 82.902 105.071 81.804C106.278 80.706 106.617 79.2949 106.087 77.5708C105.693 75.8532 105.602 74.8974 105.815 74.7037C106.525 74.0578 108.32 72.7498 111.2 70.7798C114.151 68.7451 116.337 67.0819 117.757 65.7901C119.178 64.4984 120.747 62.2283 122.464 58.9798C124.246 55.8023 125.314 54.0521 125.669 53.7292C126.237 53.2125 129.001 53.6834 133.961 55.142C139.056 56.6071 142.218 58.0143 143.445 59.3638C144.737 60.7843 146.374 63.5124 148.357 67.5481C150.411 71.5192 150.906 73.9892 149.84 74.958C149.059 75.6685 146.751 77.054 142.915 79.1146C139.08 81.1753 136.949 82.3993 136.523 82.7869C136.097 83.1744 135.9 83.7427 135.932 84.4918C136.1 85.2473 135.971 85.8188 135.545 86.2063C126.738 92.7881 120.914 97.3708 118.073 99.9543C115.303 102.473 113.702 103.994 113.269 104.517C112.907 104.976 112.604 105.641 112.359 106.513C112.114 107.385 111.707 108.079 111.139 108.596C111.068 108.66 110.054 108.544 108.097 108.248C106.205 108.022 104.904 108.232 104.194 108.878C103.483 109.524 103.18 110.903 103.284 113.014C103.387 115.126 102.906 116.666 101.841 117.635C100.227 118.714 99.3164 119.282 99.1098 119.34C99.0388 119.405 98.1282 119.26 96.3781 118.905C94.6991 118.485 93.7175 118.405 93.4334 118.663L92.6877 119.341C91.7644 120.181 91.7 121.537 92.4946 123.41C92.8564 124.378 92.8597 125.024 92.5046 125.347Z" fill="white"/>
<path d="M208.333 85.2661C209.916 86.1924 212.763 87.5849 216.875 89.4435C220.986 91.3021 225.938 92.1182 231.729 91.8917C232.166 92.0895 232.498 92.8714 232.723 94.2374C232.988 95.516 233.196 96.4531 233.349 97.0487C233.413 97.6047 233.574 98.4148 233.83 99.4789C234.126 100.456 234.35 101.242 234.502 101.837C234.911 103.497 234.997 104.589 234.759 105.114C233.613 107.651 231.233 111.632 227.622 117.058C224.049 122.397 221.782 124.848 220.82 124.413C220.295 124.176 218.207 122.969 214.556 120.791C210.905 118.614 208.88 117.383 208.482 117.098L207.06 115.349C198.756 110.646 193.248 107.682 190.536 106.456C187.824 105.231 184.397 103.839 180.255 102.283C176.152 100.639 172.904 99.4336 170.511 98.6679C168.07 97.7751 166.805 97.3089 166.718 97.2694C166.543 97.1903 166.395 96.702 166.274 95.8045C165.832 93.2868 164.867 91.6918 163.38 91.0196C161.893 90.3473 160.463 90.5965 159.091 91.7673C157.671 92.811 156.83 93.2736 156.568 93.1549C155.693 92.7595 153.78 91.6312 150.828 89.7702C147.789 87.8697 145.395 86.524 143.646 85.7331C141.896 84.9422 139.19 84.4035 135.526 84.1171C131.903 83.7432 129.872 83.4574 129.435 83.2597C128.735 82.9433 128.07 80.2195 127.44 75.0883C126.761 69.8301 126.798 66.37 127.549 64.7079C128.34 62.9584 130.194 60.3724 133.111 56.9501C135.94 53.4881 138.011 52.0538 139.323 52.6469C140.285 53.0819 142.473 54.6505 145.887 57.3528C149.301 60.055 151.271 61.5247 151.796 61.762C152.32 61.9993 152.92 61.9543 153.595 61.6272C154.222 61.173 154.797 61.0646 155.322 61.3019C164.86 66.7722 171.378 70.2983 174.877 71.8801C178.288 73.4224 180.32 74.2882 180.972 74.4775C181.536 74.6273 182.267 74.6417 183.165 74.5207C184.063 74.3996 184.861 74.4973 185.561 74.8137C185.648 74.8532 185.944 75.8298 186.449 77.7436C186.993 79.5698 187.702 80.6806 188.577 81.0761C189.452 81.4715 190.838 81.2025 192.735 80.269C194.632 79.3356 196.236 79.1654 197.548 79.7586C199.179 80.8119 200.062 81.4219 200.198 81.5884C200.285 81.628 200.514 82.5213 200.883 84.2685C201.164 85.9761 201.48 86.909 201.83 87.0671L202.748 87.4824C203.886 87.9964 205.156 87.5171 206.559 86.0444C207.304 85.3278 207.896 85.0684 208.333 85.2661Z" fill="white"/>
<path d="M302.755 129.681C304.338 130.608 307.185 132 311.296 133.859C315.408 135.717 320.359 136.533 326.151 136.307C326.588 136.505 326.919 137.287 327.145 138.653C327.409 139.931 327.618 140.868 327.77 141.464C327.835 142.02 327.995 142.83 328.252 143.894C328.548 144.871 328.772 145.657 328.924 146.252C329.333 147.912 329.418 149.004 329.181 149.529C328.034 152.066 325.655 156.047 322.043 161.473C318.471 166.812 316.204 169.264 315.241 168.829C314.717 168.591 312.629 167.384 308.977 165.207C305.326 163.029 303.301 161.798 302.904 161.513L301.482 159.764C293.178 155.062 287.67 152.098 284.958 150.872C282.246 149.646 278.819 148.255 274.676 146.698C270.573 145.054 267.325 143.849 264.932 143.083C262.491 142.19 261.227 141.724 261.139 141.685C260.965 141.606 260.817 141.117 260.695 140.22C260.253 137.702 259.289 136.107 257.802 135.435C256.314 134.763 254.885 135.012 253.513 136.183C252.093 137.226 251.252 137.689 250.989 137.57C250.114 137.175 248.201 136.047 245.25 134.185C242.211 132.285 239.817 130.939 238.067 130.148C236.318 129.357 233.611 128.819 229.948 128.532C226.324 128.158 224.294 127.873 223.856 127.675C223.157 127.359 222.491 124.635 221.861 119.504C221.183 114.245 221.22 110.785 221.971 109.123C222.762 107.374 224.616 104.788 227.532 101.365C230.362 97.9034 232.432 96.469 233.744 97.0622C234.707 97.4972 236.895 99.0658 240.309 101.768C243.723 104.47 245.692 105.94 246.217 106.177C246.742 106.415 247.342 106.37 248.016 106.042C248.643 105.588 249.219 105.48 249.744 105.717C259.281 111.187 265.799 114.714 269.298 116.295C272.71 117.838 274.742 118.703 275.394 118.893C275.958 119.043 276.689 119.057 277.586 118.936C278.484 118.815 279.283 118.913 279.983 119.229C280.07 119.268 280.366 120.245 280.87 122.159C281.414 123.985 282.124 125.096 282.999 125.491C283.873 125.887 285.259 125.618 287.156 124.684C289.053 123.751 290.658 123.581 291.97 124.174C293.601 125.227 294.484 125.837 294.619 126.004C294.707 126.043 294.935 126.937 295.304 128.684C295.586 130.391 295.901 131.324 296.251 131.482L297.17 131.898C298.307 132.412 299.577 131.932 300.981 130.46C301.726 129.743 302.317 129.484 302.755 129.681Z" fill="white"/>
</svg>
